
<svg
  version="1.0"
  xmlns="http://www.w3.org/2000/svg"
  xmlns:xlink="http://www.w3.org/1999/xlink"
  width="2400"
  height="1800"
>
  
  <rect
    x="0"
    y="0"
    width="100%"
    height="100%"
    fill="#444"
    fill-opacity="1"
  ></rect>
  <svg
    version="1.0"
    xmlns="http://www.w3.org/2000/svg"
    xmlns:xlink="http://www.w3.org/1999/xlink"
    x="0"
    y="0"
    width="2400"
    height="1800"
    viewBox="0 0 340.000000 250.000000"
    preserveAspectRatio="xMidYMid meet"
    color-interpolation-filters="sRGB"
  >
    <defs><linearGradient id="92" x1="0%" y1="0%" x2="100%" y2="0%"><stop offset="0%" stop-color="#fa71cd"/> <stop offset="100%" stop-color="#9b59b6"/></linearGradient><linearGradient id="93" x1="0%" y1="0%" x2="100%" y2="0%"><stop offset="0%" stop-color="#f9d423"/> <stop offset="100%" stop-color="#f83600"/></linearGradient><linearGradient id="94" x1="0%" y1="0%" x2="100%" y2="0%"><stop offset="0%" stop-color="#0064d2"/> <stop offset="100%" stop-color="#1cb0f6"/></linearGradient><linearGradient id="95" x1="0%" y1="0%" x2="100%" y2="0%"><stop offset="0%" stop-color="#f00978"/> <stop offset="100%" stop-color="#3f51b1"/></linearGradient><linearGradient id="96" x1="0%" y1="0%" x2="100%" y2="0%"><stop offset="0%" stop-color="#7873f5"/> <stop offset="100%" stop-color="#ec77ab"/></linearGradient><linearGradient id="97" x1="0%" y1="0%" x2="100%" y2="0%"><stop offset="0%" stop-color="#f9d423"/> <stop offset="100%" stop-color="#e14fad"/></linearGradient><linearGradient id="98" x1="0%" y1="0%" x2="100%" y2="0%"><stop offset="0%" stop-color="#009efd"/> <stop offset="100%" stop-color="#2af598"/></linearGradient><linearGradient id="99" x1="0%" y1="0%" x2="100%" y2="0%"><stop offset="0%" stop-color="#ffcc00"/> <stop offset="100%" stop-color="#00b140"/></linearGradient><linearGradient id="100" x1="0%" y1="0%" x2="100%" y2="0%"><stop offset="0%" stop-color="#d51007"/> <stop offset="100%" stop-color="#ff8177"/></linearGradient><linearGradient id="102" x1="0%" y1="0%" x2="100%" y2="0%"><stop offset="0%" stop-color="#a2b6df"/> <stop offset="100%" stop-color="#0c3483"/></linearGradient><linearGradient id="103" x1="0%" y1="0%" x2="100%" y2="0%"><stop offset="0%" stop-color="#7ac5d8"/> <stop offset="100%" stop-color="#eea2a2"/></linearGradient><linearGradient id="104" x1="0%" y1="0%" x2="100%" y2="0%"><stop offset="0%" stop-color="#00ecbc"/> <stop offset="100%" stop-color="#007adf"/></linearGradient><linearGradient id="105" x1="0%" y1="0%" x2="100%" y2="0%"><stop offset="0%" stop-color="#b88746"/> <stop offset="100%" stop-color="#fdf5a6"/></linearGradient></defs> <g fill="#fff" class="icon-text-wrapper icon-svg-group iconsvg" transform="translate(95.24000543355942,73.30056381225586)"><g class="iconsvg-imagesvg" transform="translate(44.75999450683594,0)"><g><rect fill="#fff" fill-opacity="0" stroke-width="2" x="0" y="0" width="60" height="56.032872618602916" class="image-rect"/> <svg filter="url(#colors5976911146)" x="0" y="0" width="60" height="56.032872618602916" filtersec="colorsf6010245010" class="image-svg-svg primary" style="overflow: visible;"><svg xmlns="http://www.w3.org/2000/svg" viewBox="13.677627563476562 89.5285873413086 1476.3446044921875 1378.7261962890625"><g fill-rule="evenodd" clip-rule="evenodd"><path fill="#F08D00" d="M358.406 181.943C550.705 70.924 774.3 63.149 965.028 141.368l-57.756 33.342c-167.65-56.601-357.884-43.599-523.129 51.804-305.012 176.1-409.561 566.267-233.459 871.279 176.096 305.007 566.264 409.55 871.276 233.453 185.105-106.868 296.369-292.59 315.869-490.267l53.858-31.089c-10.432 226.913-132.717 443.941-343.995 565.929-329.625 190.309-751.274 77.33-941.577-252.3-190.313-329.618-77.328-751.268 252.291-941.576zm699.421 5.909l-51.649 29.82a637.01 637.01 0 0 1 84.719 54.722l47.961-27.691a686.894 686.894 0 0 0-81.031-56.851zm147.339 118.633l-45.885 26.491c21.022 21.533 40.692 44.789 58.827 69.669l44.813-25.873a687.636 687.636 0 0 0-57.755-70.287zm103.789 143.775l-44.605 25.751a639.248 639.248 0 0 1 37.178 82.169l45.185-26.085a690.8 690.8 0 0 0-37.758-81.835zm64.195 166.634l-46.629 26.921a633.982 633.982 0 0 1 13.22 95.999l49.409-28.525a685.037 685.037 0 0 0-16-94.395z"/><path fill="#00A5A9" d="M413.555 277.454c69.461-40.106 143.791-64.161 218.694-73.335-29.125 38.673-53.036 80.618-71.49 124.693L169.17 554.897c47.212-112.791 130.338-211.603 244.385-277.443zm630.931-181.966L540.023 386.74 230.588 565.392l-82.155 47.433c-16.611 55.521-24.915 113.473-24.395 171.828l391.585-226.088a581.895 581.895 0 0 1 2.5-59.114L1153.08 132.86a582.853 582.853 0 0 0-108.594-37.372zm198.664 89.001L517.768 603.288 318.795 718.167 126.178 829.375a574.869 574.869 0 0 0 30.16 140.325l391.59-226.085a575.151 575.151 0 0 1-14.774-49.142l781.316-451.095a576.018 576.018 0 0 0-71.32-58.889zm131.619 127.706L562.554 781.127l-155.556 89.811-236.034 136.274a581.113 581.113 0 0 0 30.659 61.169c11.552 20.015 24.156 39.053 37.64 57.135l391.596-226.085a589.923 589.923 0 0 1-28.212-41.383l818.67-472.66c-2.883-5.38-1.587-3.39-8.903-16.059-7.316-12.669-24.156-39.047-37.645-57.134zm82.93 155.819l-801.665 462.84-160.828 92.858-230.763 133.228a574.66 574.66 0 0 0 106.449 96.282l391.59-226.085a576.151 576.151 0 0 1-42.758-32.99l760.946-439.333a574.74 574.74 0 0 0-22.971-86.8zm32.3 185.047a580.476 580.476 0 0 1-8.638 105.055l-585.923 338.286a584.178 584.178 0 0 0 65.703 19.738l-391.59 226.085c-56.381-13.378-110.733-35.155-160.998-64.789l174.854-100.954 216.736-125.131 689.856-398.29zm-324.587 474.515c-45.396 60.283-103.396 112.623-172.863 152.732-114.035 65.835-241.178 88.43-362.46 72.923l391.591-226.085c47.397 6.062 95.681 6.323 143.732.43z"/></g></svg></svg> <defs><filter id="colors5976911146"><feColorMatrix type="matrix" values="0 0 0 0 0.99609375  0 0 0 0 0.99609375  0 0 0 0 0.99609375  0 0 0 1 0" class="icon-feColorMatrix "/></filter> <filter id="colorsf6010245010"><feColorMatrix type="matrix" values="0 0 0 0 0.99609375  0 0 0 0 0.99609375  0 0 0 0 0.99609375  0 0 0 1 0" class="icon-fecolormatrix"/></filter> <filter id="colorsb7434990101"><feColorMatrix type="matrix" values="0 0 0 0 0  0 0 0 0 0  0 0 0 0 0  0 0 0 1 0" class="icon-fecolormatrix"/></filter></defs></g></g> <g transform="translate(0,63.032875061035156)"><g fill-rule="" class="tp-name iconsvg-namesvg" transform="translate(0,0)"><g transform="scale(1)"><g><path d="M15.94-18.81C17.92-18.81 18.35-19.7 18.45-21.02L18.58-22.97C18.58-23.3 18.32-23.43 18.05-23.43L3.3-23.43C1.68-23.43 1.16-22.24 1.09-21.12L0.99-19.27C0.99-18.98 1.06-18.81 1.35-18.81L6.63-18.81C6.24-13.4 5.51-4.75 5.51-2.81 5.51-1.02 6.5 0 8.94 0L10.76 0C10.99 0 11.09-0.13 11.12-0.49L12.38-18.81ZM30.26-4.09C30.23-3.73 30.2-3.33 30.2-2.9 30.2-1.06 30.82 0 33.59 0L34.65 0C35.41 0 35.48-0.07 35.54-1.02 35.81-5.02 36.43-11.12 36.43-12.51 36.43-17 34.68-18.48 30.99-18.48 28.55-18.48 27.06-17.75 25.74-15.58 25.97-18.48 26.14-20.79 26.14-21.58 26.14-23.07 25.34-24.42 22.7-24.42L21.42-24.42C21.12-24.42 20.99-24.42 20.89-24.32 20.79-24.22 20.76-23.99 20.72-23.46 19.93-9.37 19.27-5.12 19.27-3.14 19.27-1.12 19.93 0 22.64 0L23.83 0C24.39 0 24.55-0.13 24.55-0.66 24.55-1.25 25.05-6.8 25.18-8.61 25.41-11.88 26.76-14.06 28.88-14.06 30.46-14.06 30.89-13 30.89-11.85 30.89-10.76 30.53-7 30.26-4.09ZM46.99 0.33C49.93 0.33 53.46-0.69 53.46-3.27 53.46-5.25 51.38-5.61 50.95-5.61 50.03-5.61 50.06-3.8 47.75-3.8 45.51-3.8 44.62-5.48 44.62-7.16 46.76-7.16 54.95-7.49 54.95-13.53 54.95-16.24 53.33-18.48 48.74-18.48 40.23-18.48 38.94-10.72 38.94-7.39 38.94-1.39 43.16 0.33 46.99 0.33ZM47.62-14.09C48.74-14.09 49.3-13.27 49.3-12.38 49.3-10.76 47.42-9.83 44.72-9.8 44.95-11.68 45.67-14.09 47.62-14.09ZM81.48 0C81.87 0 81.97-0.13 82-0.49 82.1-1.52 83.36-19.11 83.36-20.03 83.36-22.28 82.67-23.43 79.96-23.43L78.14-23.43C77.78-23.43 77.62-23.3 77.62-22.94 77.62-21.91 77.32-18.22 77.02-14.32L71.12-14.32C71.31-17.29 71.48-19.7 71.48-20.03 71.48-22.28 70.78-23.43 68.08-23.43L66.26-23.43C65.9-23.43 65.74-23.3 65.74-22.94 65.74-20.69 64.35-5.48 64.35-2.81 64.35-1.02 65.34 0 67.78 0L69.6 0C69.99 0 70.09-0.13 70.13-0.49L70.78-9.54 76.66-9.54C76.43-6.47 76.23-3.76 76.23-2.81 76.23-1.02 77.22 0 79.66 0ZM90.85 0C91.41 0 91.54-0.13 91.58-0.66 92.33-10.13 92.63-13.86 92.63-15.15 92.63-17.03 91.97-18.15 89.27-18.15L87.98-18.15C87.68-18.15 87.55-18.15 87.45-18.05 87.35-17.95 87.32-17.72 87.29-17.19 86.59-7.49 86.3-4.49 86.3-3.14 86.3-1.12 86.96 0 89.66 0ZM87.32-22.04C87.32-20.63 88.24-19.93 89.99-19.93 92.3-19.93 93.56-21.15 93.56-22.77 93.56-24.06 92.73-24.88 90.85-24.88 88.7-24.88 87.32-23.79 87.32-22.04ZM99.36 0.3C102.43 0.3 103.19-1.75 103.19-3.7 103.19-4.16 101.21-3.6 101.21-5.84 101.21-8.35 102.33-18.98 102.33-21.58 102.33-23.07 101.54-24.42 98.9-24.42L97.61-24.42C97.32-24.42 97.19-24.42 97.09-24.32 96.99-24.22 96.95-23.99 96.92-23.46 96.13-9.37 95.53-6.01 95.53-4.39 95.53-1.06 96.66 0.3 99.36 0.3ZM109.33 0.3C112.4 0.3 113.16-1.75 113.16-3.7 113.16-4.16 111.18-3.6 111.18-5.84 111.18-8.35 112.3-18.98 112.3-21.58 112.3-23.07 111.51-24.42 108.87-24.42L107.58-24.42C107.28-24.42 107.15-24.42 107.05-24.32 106.95-24.22 106.92-23.99 106.89-23.46 106.09-9.37 105.5-6.01 105.5-4.39 105.5-1.06 106.62 0.3 109.33 0.3ZM123.09 0.33C126.03 0.33 129.56-0.69 129.56-3.27 129.56-5.25 127.48-5.61 127.05-5.61 126.13-5.61 126.16-3.8 123.85-3.8 121.61-3.8 120.71-5.48 120.71-7.16 122.86-7.16 131.04-7.49 131.04-13.53 131.04-16.24 129.43-18.48 124.84-18.48 116.33-18.48 115.04-10.72 115.04-7.39 115.04-1.39 119.26 0.33 123.09 0.33ZM123.72-14.09C124.84-14.09 125.4-13.27 125.4-12.38 125.4-10.76 123.52-9.83 120.81-9.8 121.04-11.68 121.77-14.09 123.72-14.09ZM144.28-2.9C144.28-1.06 144.9 0 147.68 0L148.73 0C149.49 0 149.62-0.07 149.62-1.02 149.62-2.15 150.51-10.36 150.51-12.51 150.51-17 148.76-18.48 145.07-18.48 142.43-18.48 140.81-17.72 139.43-15.38 139.33-16.83 138.63-18.15 135.99-18.15L134.71-18.15C134.41-18.15 134.28-18.15 134.18-18.05 134.08-17.95 134.05-17.72 134.01-17.19 133.32-7.49 133.02-4.49 133.02-3.14 133.02-1.12 133.68 0 136.39 0L137.58 0C138.14 0 138.27-0.13 138.3-0.66 139.06-11.58 139.92-14.06 142.96-14.06 144.54-14.06 144.97-13 144.97-11.85 144.97-9.67 144.28-4.82 144.28-2.9Z" transform="translate(-0.9900000095367432, 24.8799991607666)"/></g> </g></g> <g fill-rule="" class="tp-slogan iconsvg-slogansvg" fill="#fff" transform="translate(54.829994201660156,32.21000099182129)"> <g transform="scale(1, 1)"><g transform="scale(1)"><path d="M0.62-3.94L0.62-3.94Q0.62-4.88 0.89-5.64Q1.16-6.40 1.65-6.92Q2.14-7.45 2.80-7.73Q3.46-8.02 4.25-8.02L4.25-8.02Q5.06-8.02 5.61-7.71Q6.16-7.40 6.50-7.04L6.50-7.04L5.94-6.41Q5.64-6.72 5.25-6.93Q4.86-7.14 4.26-7.14L4.26-7.14Q3.66-7.14 3.18-6.92Q2.70-6.70 2.36-6.28Q2.03-5.87 1.84-5.28Q1.66-4.69 1.66-3.96L1.66-3.96Q1.66-3.22 1.83-2.62Q2.00-2.03 2.33-1.61Q2.66-1.19 3.15-0.96Q3.64-0.73 4.27-0.73L4.27-0.73Q4.69-0.73 5.07-0.86Q5.45-0.98 5.69-1.20L5.69-1.20L5.69-3.25L4.02-3.25L4.02-4.08L6.60-4.08L6.60-0.77Q6.22-0.37 5.59-0.11Q4.96 0.14 4.16 0.14L4.16 0.14Q3.38 0.14 2.74-0.13Q2.09-0.41 1.62-0.93Q1.15-1.45 0.89-2.21Q0.62-2.98 0.62-3.94ZM10.48-7.07L10.48-4.14L11.80-4.14Q12.72-4.14 13.22-4.52Q13.71-4.90 13.71-5.66L13.71-5.66Q13.71-6.44 13.22-6.76Q12.72-7.07 11.80-7.07L11.80-7.07L10.48-7.07ZM14.93 0L13.80 0L11.91-3.32L10.48-3.32L10.48 0L9.48 0L9.48-7.87L11.94-7.87Q12.54-7.87 13.05-7.76Q13.56-7.64 13.93-7.38Q14.30-7.12 14.50-6.70Q14.70-6.28 14.70-5.66L14.70-5.66Q14.70-4.74 14.22-4.19Q13.74-3.64 12.94-3.43L12.94-3.43L14.93 0ZM20.36 0.14L20.36 0.14Q19.62 0.14 19.00-0.14Q18.38-0.43 17.94-0.97Q17.49-1.50 17.25-2.26Q17-3.02 17-3.97L17-3.97Q17-4.92 17.25-5.67Q17.49-6.42 17.94-6.94Q18.38-7.46 19.00-7.74Q19.62-8.02 20.36-8.02L20.36-8.02Q21.10-8.02 21.72-7.73Q22.34-7.45 22.79-6.93Q23.24-6.41 23.49-5.66Q23.73-4.91 23.73-3.97L23.73-3.97Q23.73-3.02 23.49-2.26Q23.24-1.50 22.79-0.97Q22.34-0.43 21.72-0.14Q21.10 0.14 20.36 0.14ZM20.36-0.73L20.36-0.73Q20.89-0.73 21.31-0.96Q21.74-1.19 22.05-1.61Q22.35-2.04 22.52-2.63Q22.69-3.23 22.69-3.97L22.69-3.97Q22.69-4.70 22.52-5.29Q22.35-5.88 22.05-6.29Q21.74-6.70 21.31-6.92Q20.89-7.14 20.36-7.14L20.36-7.14Q19.83-7.14 19.41-6.92Q18.98-6.70 18.67-6.29Q18.37-5.88 18.20-5.29Q18.03-4.70 18.03-3.97L18.03-3.97Q18.03-3.23 18.20-2.63Q18.37-2.04 18.67-1.61Q18.98-1.19 19.41-0.96Q19.83-0.73 20.36-0.73ZM26.39-3.25L26.39-7.87L27.38-7.87L27.38-3.23Q27.38-2.52 27.53-2.04Q27.67-1.56 27.92-1.27Q28.16-0.98 28.50-0.86Q28.84-0.73 29.22-0.73L29.22-0.73Q29.62-0.73 29.95-0.86Q30.29-0.98 30.54-1.27Q30.79-1.56 30.94-2.04Q31.08-2.52 31.08-3.23L31.08-3.23L31.08-7.87L32.04-7.87L32.04-3.25Q32.04-2.30 31.82-1.66Q31.61-1.01 31.23-0.61Q30.85-0.20 30.34-0.03Q29.82 0.14 29.22 0.14L29.22 0.14Q28.62 0.14 28.10-0.03Q27.58-0.20 27.20-0.61Q26.82-1.01 26.60-1.66Q26.39-2.30 26.39-3.25L26.39-3.25ZM35.16 0L35.16-7.87L37.58-7.87Q38.22-7.87 38.76-7.75Q39.30-7.63 39.68-7.36Q40.06-7.09 40.27-6.65Q40.48-6.20 40.48-5.56L40.48-5.56Q40.48-4.93 40.27-4.48Q40.06-4.02 39.68-3.72Q39.29-3.42 38.76-3.27Q38.22-3.12 37.58-3.12L37.58-3.12L36.16-3.12L36.16 0L35.16 0ZM36.16-3.94L37.46-3.94Q38.49-3.94 38.99-4.33Q39.48-4.72 39.48-5.56L39.48-5.56Q39.48-6.41 38.98-6.74Q38.48-7.07 37.46-7.07L37.46-7.07L36.16-7.07L36.16-3.94Z" transform="translate(-0.624, 8.016)"/></g></g></g></g></g><defs v-gra="od"/>
  </svg>
</svg>


