<svg xmlns="http://www.w3.org/2000/svg" width="1600" height="900" viewBox="0 0 1600 900" role="img" aria-label="Research insights dashboard mockup">
  <rect width="1600" height="900" fill="#ffffff"/>
  <rect x="120" y="120" width="1360" height="660" rx="20" fill="#ffffff" stroke="#e5e7eb"/>
  <rect x="120" y="120" width="1360" height="70" rx="20" fill="#0b6570"/>
  <rect x="160" y="145" width="200" height="20" rx="10" fill="#89d5dd"/>
  <rect x="120" y="210" width="840" height="280" fill="#f3f4f6"/>
  <polyline points="160,450 260,380 360,420 460,340 560,360 660,300 760,330 920,260" fill="none" stroke="#00a9b7" stroke-width="6"/>
  <rect x="1000" y="210" width="480" height="280" fill="#f9fafb" stroke="#e5e7eb"/>
  <rect x="1040" y="250" width="140" height="16" rx="8" fill="#cbd5e1"/>
  <rect x="1040" y="280" width="380" height="16" rx="8" fill="#e5e7eb"/>
  <rect x="1040" y="310" width="240" height="16" rx="8" fill="#e5e7eb"/>
  <rect x="120" y="520" width="1360" height="220" fill="#f9fafb" stroke="#e5e7eb"/>
  <rect x="160" y="560" width="220" height="120" fill="#e5e7eb"/>
  <rect x="420" y="560" width="220" height="120" fill="#e5e7eb"/>
  <rect x="680" y="560" width="220" height="120" fill="#e5e7eb"/>
  <rect x="940" y="560" width="220" height="120" fill="#e5e7eb"/>
  <rect x="1200" y="560" width="220" height="120" fill="#e5e7eb"/>
  <text x="160" y="255" font-family="Segoe UI, Roboto, Arial" font-size="26" fill="#475569">Trends Over Time</text>
  <text x="1040" y="240" font-family="Segoe UI, Roboto, Arial" font-size="26" fill="#475569">Key Findings</text>
</svg>
