<svg xmlns="http://www.w3.org/2000/svg" width="1600" height="900" viewBox="0 0 1600 900" role="img" aria-label="E‑commerce storefront mockup">
  <defs>
    <linearGradient id="g" x1="0" x2="0" y1="0" y2="1">
      <stop offset="0%" stop-color="#eef8f9"/>
      <stop offset="100%" stop-color="#ffffff"/>
    </linearGradient>
  </defs>
  <rect width="1600" height="900" fill="url(#g)"/>
  <rect x="120" y="140" width="1360" height="620" rx="20" fill="#fff" stroke="#e5e7eb"/>
  <rect x="120" y="140" width="1360" height="80" rx="20" fill="#0b6570"/>
  <rect x="160" y="170" width="220" height="20" rx="10" fill="#ffffff" opacity=".9"/>
  <rect x="420" y="170" width="140" height="20" rx="10" fill="#89d5dd" opacity=".9"/>
  <rect x="120" y="260" width="480" height="440" fill="#f3f4f6"/>
  <rect x="640" y="280" width="800" height="120" rx="10" fill="#f9fafb" stroke="#e5e7eb"/>
  <rect x="640" y="430" width="800" height="40" rx="6" fill="#e5e7eb"/>
  <rect x="640" y="490" width="240" height="26" rx="6" fill="#00a9b7"/>
  <rect x="900" y="490" width="160" height="26" rx="6" fill="#f59e0b"/>
  <rect x="1080" y="490" width="200" height="26" rx="6" fill="#e5e7eb"/>
  <text x="160" y="355" font-family="Segoe UI, Roboto, Arial" font-size="40" fill="#94a3b8">Product Image</text>
  <text x="660" y="350" font-family="Segoe UI, Roboto, Arial" font-size="48" fill="#0b1f28">StonePro Storefront</text>
  <text x="660" y="420" font-family="Segoe UI, Roboto, Arial" font-size="24" fill="#475569">Premium sealer • Cleaner • Accessories</text>
</svg>
